<svg xmlns="http://www.w3.org/2000/svg" viewBox="0 0 400 200" fill="none">
  <rect width="400" height="200" fill="#0B1221"/>
  <g transform="translate(60, 50)">
    <rect x="0" y="0" width="120" height="100" rx="8" fill="#151D2E" stroke="#1E293B" stroke-width="1"/>
    <text x="60" y="30" text-anchor="middle" font-family="Inter, sans-serif" font-size="8" font-weight="600" fill="#64748B" text-transform="uppercase">BEFORE</text>
    <rect x="15" y="42" width="90" height="6" rx="3" fill="#EF4444" fill-opacity="0.2"/>
    <rect x="15" y="42" width="75" height="6" rx="3" fill="#EF4444" fill-opacity="0.4"/>
    <rect x="15" y="56" width="90" height="6" rx="3" fill="#EF4444" fill-opacity="0.2"/>
    <rect x="15" y="56" width="60" height="6" rx="3" fill="#F59E0B" fill-opacity="0.4"/>
    <rect x="15" y="70" width="90" height="6" rx="3" fill="#EF4444" fill-opacity="0.2"/>
    <rect x="15" y="70" width="85" height="6" rx="3" fill="#EF4444" fill-opacity="0.3"/>
    <text x="60" y="92" text-anchor="middle" font-family="Inter, sans-serif" font-size="9" font-weight="700" fill="#EF4444" opacity="0.6">Days</text>
  </g>
  <g transform="translate(130, 90)">
    <text x="30" y="15" text-anchor="middle" font-family="Inter, sans-serif" font-size="20" fill="#334155">&#x2192;</text>
  </g>
  <g transform="translate(220, 50)">
    <rect x="0" y="0" width="120" height="100" rx="8" fill="#151D2E" stroke="#10B981" stroke-width="1" stroke-opacity="0.3"/>
    <text x="60" y="30" text-anchor="middle" font-family="Inter, sans-serif" font-size="8" font-weight="600" fill="#10B981" text-transform="uppercase">AFTER</text>
    <rect x="15" y="42" width="90" height="6" rx="3" fill="#10B981" fill-opacity="0.2"/>
    <rect x="15" y="42" width="90" height="6" rx="3" fill="#10B981" fill-opacity="0.5"/>
    <rect x="15" y="56" width="90" height="6" rx="3" fill="#10B981" fill-opacity="0.2"/>
    <rect x="15" y="56" width="88" height="6" rx="3" fill="#10B981" fill-opacity="0.4"/>
    <rect x="15" y="70" width="90" height="6" rx="3" fill="#10B981" fill-opacity="0.2"/>
    <rect x="15" y="70" width="90" height="6" rx="3" fill="#10B981" fill-opacity="0.5"/>
    <text x="60" y="92" text-anchor="middle" font-family="Inter, sans-serif" font-size="9" font-weight="700" fill="#10B981">Hours</text>
  </g>
</svg>
