<svg xmlns="http://www.w3.org/2000/svg" width="141" height="43" viewBox="0 0 141 43" fill="none"><path d="M11.2802 17.0276C12.3632 17.0276 13.356 17.1517 14.2585 17.3999C15.161 17.6255 15.8831 17.9414 16.4246 18.3476C16.9887 18.7537 17.2707 19.1937 17.2707 19.6675C17.2707 19.8931 17.1917 20.1188 17.0338 20.3444C16.8759 20.5475 16.6615 20.649 16.3907 20.649C16.12 20.649 15.8944 20.5813 15.7139 20.4459C15.5559 20.3106 15.3867 20.1526 15.2062 19.9721C15.0482 19.7916 14.8113 19.6224 14.4954 19.4644C14.2021 19.3291 13.7847 19.205 13.2432 19.0922C12.7017 18.9793 12.0812 18.9229 11.3817 18.9229C10.1182 18.9229 8.97871 19.2388 7.96336 19.8706C6.94801 20.5024 6.14701 21.3598 5.56037 22.4428C4.97372 23.5033 4.6804 24.6991 4.6804 26.0304C4.6804 27.3842 4.96244 28.6026 5.52652 29.6856C6.0906 30.7687 6.86904 31.6261 7.86182 32.2578C8.85461 32.867 10.0166 33.1716 11.3479 33.1716C12.2504 33.1716 12.9498 33.0927 13.4462 32.9347C13.9426 32.7768 14.3713 32.5963 14.7323 32.3932C15.161 32.145 15.4657 31.9081 15.6462 31.6825C15.8492 31.4343 16.1087 31.3102 16.4246 31.3102C16.7179 31.3102 16.9323 31.4004 17.0676 31.5809C17.2256 31.7389 17.3046 31.9532 17.3046 32.224C17.3046 32.585 17.0338 32.9911 16.4923 33.4424C15.9733 33.8711 15.2513 34.2547 14.3262 34.5931C13.4011 34.909 12.3406 35.067 11.1448 35.067C9.45254 35.067 7.96336 34.6721 6.67725 33.8824C5.4137 33.0927 4.42092 32.0209 3.69889 30.6671C2.99943 29.2908 2.6497 27.7452 2.6497 26.0304C2.6497 24.3832 3.01071 22.8828 3.73274 21.529C4.45476 20.1752 5.45883 19.0922 6.74494 18.2799C8.05361 17.445 9.56535 17.0276 11.2802 17.0276Z" fill="#C2C8E5"/><path d="M48.6375 17.0276C49.6529 17.0276 50.5893 17.2081 51.4467 17.5691C52.3041 17.9076 53.0487 18.3588 53.6804 18.9229C54.3348 19.4644 54.8424 20.0511 55.2035 20.6829C55.5645 21.2921 55.745 21.8787 55.745 22.4428L55.1696 21.6305V18.4829C55.1696 18.1896 55.2599 17.9414 55.4404 17.7384C55.6434 17.5353 55.8916 17.4337 56.185 17.4337C56.5008 17.4337 56.749 17.5353 56.9295 17.7384C57.1101 17.9414 57.2003 18.1896 57.2003 18.4829V33.1378C57.2003 34.9429 56.828 36.4659 56.0834 37.7069C55.3388 38.9479 54.3235 39.8842 53.0374 40.516C51.7738 41.1703 50.3298 41.4975 48.7052 41.4975C47.9155 41.4975 47.0807 41.396 46.2007 41.1929C45.3433 40.9898 44.5987 40.7304 43.9669 40.4145C43.3577 40.0986 43.0193 39.7714 42.9516 39.433C42.7711 39.2299 42.6808 39.0268 42.6808 38.8238C42.7034 38.6432 42.8049 38.4853 42.9854 38.3499C43.2111 38.192 43.448 38.1694 43.6962 38.2822C43.9444 38.4176 44.3167 38.5868 44.8131 38.7899C45.0387 38.8576 45.3433 38.9591 45.7269 39.0945C46.1104 39.2299 46.5617 39.3427 47.0807 39.433C47.6222 39.5458 48.1863 39.6022 48.7729 39.6022C50.8036 39.6022 52.3718 39.0155 53.4774 37.8423C54.6055 36.6915 55.1696 35.1685 55.1696 33.2732V30.0241L55.5419 30.1256C55.3388 30.9379 55.0004 31.6486 54.5266 32.2578C54.0753 32.867 53.5338 33.386 52.902 33.8147C52.2702 34.2208 51.582 34.5254 50.8375 34.7285C50.1154 34.9541 49.3934 35.067 48.6714 35.067C47.1145 35.067 45.7156 34.6721 44.4746 33.8824C43.2336 33.0927 42.2408 32.0209 41.4963 30.6671C40.7742 29.3133 40.4132 27.7677 40.4132 26.0304C40.4132 24.3156 40.7742 22.7813 41.4963 21.4275C42.2408 20.0511 43.2223 18.9793 44.4408 18.2122C45.6817 17.4225 47.0807 17.0276 48.6375 17.0276ZM48.8744 18.9229C47.6335 18.9229 46.5166 19.2388 45.5238 19.8706C44.5536 20.4798 43.7864 21.3259 43.2223 22.409C42.6808 23.4694 42.4101 24.6766 42.4101 26.0304C42.4101 27.3842 42.6808 28.6026 43.2223 29.6856C43.7864 30.7687 44.5536 31.6261 45.5238 32.2578C46.5166 32.867 47.6335 33.1716 48.8744 33.1716C50.1154 33.1716 51.221 32.867 52.1913 32.2578C53.1615 31.6486 53.9286 30.8138 54.4927 29.7533C55.0568 28.6703 55.3388 27.4293 55.3388 26.0304C55.3388 24.6314 55.0568 23.4017 54.4927 22.3413C53.9286 21.2582 53.1615 20.4234 52.1913 19.8367C51.221 19.2275 50.1154 18.9229 48.8744 18.9229ZM69.7057 35.067C67.9684 35.067 66.4341 34.6947 65.1028 33.9501C63.7716 33.2055 62.7337 32.1676 61.9891 30.8363C61.2445 29.5051 60.8722 27.9482 60.8722 26.1657C60.8722 24.2479 61.2445 22.612 61.9891 21.2582C62.7563 19.9044 63.7378 18.8665 64.9336 18.1445C66.152 17.3999 67.4381 17.0276 68.7919 17.0276C69.7847 17.0276 70.7437 17.2081 71.6688 17.5691C72.6164 17.9076 73.4513 18.4265 74.1733 19.126C74.9179 19.8029 75.5045 20.6377 75.9332 21.6305C76.3845 22.6233 76.6327 23.774 76.6778 25.0827C76.6552 25.3535 76.5424 25.5904 76.3394 25.7935C76.1363 25.974 75.8994 26.0642 75.6286 26.0642H62.0568L61.6506 24.2366H74.9856L74.5456 24.6427V23.9658C74.4553 22.9053 74.1169 22.0028 73.5302 21.2582C72.9436 20.5136 72.2328 19.9496 71.398 19.566C70.5632 19.1824 69.6945 18.9906 68.7919 18.9906C68.115 18.9906 67.4156 19.126 66.6935 19.3968C65.9941 19.6675 65.351 20.0962 64.7644 20.6829C64.2003 21.2469 63.7378 21.9803 63.3767 22.8828C63.0157 23.7628 62.8352 24.8119 62.8352 26.0304C62.8352 27.3616 63.106 28.5687 63.6475 29.6518C64.189 30.7348 64.9675 31.5922 65.9828 32.224C67.0207 32.8558 68.2504 33.1716 69.6719 33.1716C70.4616 33.1716 71.1724 33.0588 71.8041 32.8332C72.4359 32.6076 72.9887 32.3142 73.4625 31.9532C73.9364 31.5697 74.3312 31.1748 74.6471 30.7687C74.8953 30.5656 75.1435 30.4641 75.3917 30.4641C75.6173 30.4641 75.8091 30.5543 75.9671 30.7348C76.1476 30.9153 76.2378 31.1184 76.2378 31.344C76.2378 31.6148 76.125 31.8517 75.8994 32.0548C75.2225 32.867 74.3425 33.5778 73.2595 34.187C72.1764 34.7736 70.9919 35.067 69.7057 35.067ZM89.1811 17.0276C90.6703 17.0276 91.8549 17.3322 92.7349 17.9414C93.6374 18.5281 94.2804 19.3403 94.664 20.3783C95.0702 21.3936 95.2732 22.5218 95.2732 23.7628V33.7132C95.2732 33.9839 95.1717 34.2208 94.9686 34.4239C94.7655 34.627 94.5286 34.7285 94.2579 34.7285C93.942 34.7285 93.6938 34.627 93.5133 34.4239C93.3328 34.2208 93.2425 33.9839 93.2425 33.7132V23.8643C93.2425 22.9618 93.0959 22.1382 92.8025 21.3936C92.5092 20.649 92.0241 20.0511 91.3472 19.5998C90.6929 19.1486 89.8242 18.9229 88.7411 18.9229C87.7709 18.9229 86.8458 19.1486 85.9659 19.5998C85.1085 20.0511 84.409 20.649 83.8675 21.3936C83.326 22.1382 83.0552 22.9618 83.0552 23.8643V33.7132C83.0552 33.9839 82.9537 34.2208 82.7506 34.4239C82.5475 34.627 82.3106 34.7285 82.0398 34.7285C81.724 34.7285 81.4758 34.627 81.2953 34.4239C81.1148 34.2208 81.0245 33.9839 81.0245 33.7132V18.5506C81.0245 18.2799 81.1148 18.043 81.2953 17.8399C81.4983 17.6368 81.7465 17.5353 82.0398 17.5353C82.3332 17.5353 82.5701 17.6368 82.7506 17.8399C82.9537 18.043 83.0552 18.2799 83.0552 18.5506V21.3936L82.2768 22.612C82.3219 21.89 82.5475 21.2018 82.9537 20.5475C83.3824 19.8706 83.9239 19.2727 84.5782 18.7537C85.2326 18.2122 85.9546 17.7948 86.7443 17.5014C87.5566 17.1856 88.3689 17.0276 89.1811 17.0276ZM99.4742 17.5014H107.36C107.631 17.5014 107.856 17.603 108.037 17.806C108.218 17.9865 108.308 18.2122 108.308 18.4829C108.308 18.7311 108.218 18.9455 108.037 19.126C107.856 19.3065 107.631 19.3968 107.36 19.3968H99.4742C99.2035 19.3968 98.9666 19.3065 98.7635 19.126C98.583 18.9229 98.4927 18.6973 98.4927 18.4491C98.4927 18.1783 98.583 17.9527 98.7635 17.7722C98.9666 17.5917 99.2035 17.5014 99.4742 17.5014ZM102.96 12.7293C103.254 12.7293 103.49 12.8308 103.671 13.0339C103.874 13.237 103.976 13.4739 103.976 13.7447V30.7348C103.976 31.3666 104.055 31.8404 104.213 32.1563C104.393 32.4722 104.619 32.6865 104.889 32.7994C105.16 32.8896 105.431 32.9347 105.702 32.9347C105.882 32.9347 106.04 32.9122 106.176 32.867C106.333 32.7994 106.503 32.7655 106.683 32.7655C106.886 32.7655 107.055 32.8445 107.191 33.0024C107.349 33.1604 107.428 33.3634 107.428 33.6116C107.428 33.9275 107.247 34.1983 106.886 34.4239C106.525 34.627 106.097 34.7285 105.6 34.7285C105.397 34.7285 105.092 34.7172 104.686 34.6947C104.28 34.6495 103.863 34.5254 103.434 34.3224C103.005 34.0967 102.644 33.7132 102.351 33.1716C102.08 32.6301 101.945 31.8517 101.945 30.8363V13.7447C101.945 13.4739 102.035 13.237 102.216 13.0339C102.419 12.8308 102.667 12.7293 102.96 12.7293ZM120.487 13.6431L112.263 34.0855C112.173 34.3111 112.049 34.4803 111.891 34.5931C111.733 34.706 111.552 34.7624 111.349 34.7624C111.033 34.7624 110.796 34.6834 110.639 34.5254C110.481 34.3449 110.39 34.1306 110.368 33.8824C110.345 33.7696 110.357 33.6342 110.402 33.4763L119.337 11.6124C119.45 11.3642 119.585 11.195 119.743 11.1047C119.923 10.9919 120.126 10.9355 120.352 10.9355C120.578 10.9355 120.769 11.0032 120.927 11.1386C121.108 11.2514 121.243 11.4093 121.334 11.6124L130.235 33.3747C130.28 33.5101 130.302 33.6455 130.302 33.7809C130.302 34.0967 130.201 34.3449 129.998 34.5254C129.795 34.6834 129.558 34.7624 129.287 34.7624C129.061 34.7624 128.858 34.706 128.678 34.5931C128.52 34.4578 128.396 34.2885 128.306 34.0855L119.878 13.5077L120.487 13.6431ZM114.226 27.8918L115.072 25.895H125.564L125.97 27.8918H114.226ZM136.613 33.6793C136.591 33.9726 136.467 34.2208 136.241 34.4239C136.038 34.627 135.801 34.7285 135.53 34.7285C135.214 34.7285 134.955 34.627 134.752 34.4239C134.571 34.2208 134.481 33.9726 134.481 33.6793V12.0862C134.481 11.7929 134.583 11.5447 134.786 11.3417C134.989 11.1386 135.248 11.0371 135.564 11.0371C135.835 11.0371 136.072 11.1386 136.275 11.3417C136.5 11.5447 136.613 11.7929 136.613 12.0862V33.6793Z" fill="#C2C8E5"/><g clip-path="url(#clip0_4166_6394)"><path d="M30.3247 20.3054C30.186 21.3989 30.1406 22.0923 29.8713 22.5403C29.4312 23.0977 28.6685 23.1511 27.2656 23.2764C28.6445 23.4391 29.3885 23.4738 29.8313 23.9832C30.162 24.4339 30.218 25.1326 30.322 26.2474C30.5007 24.8019 30.53 24.0739 31.1808 23.6578C31.6448 23.4391 32.3356 23.3938 33.3784 23.2738C32.0849 23.1191 31.3354 23.0844 30.8874 22.7004C30.5087 22.263 30.4687 21.5349 30.322 20.3027L30.3247 20.3054Z" fill="white"/><path d="M30.3226 20.3027C30.1848 21.3963 30.1392 22.0907 29.87 22.5389C29.4299 23.096 28.6671 23.1491 27.2656 23.275C28.6443 23.4372 29.3898 23.4724 29.8312 23.9827C30.161 24.4346 30.2168 25.1335 30.3226 26.2473C30.5024 24.8027 30.5305 24.0733 31.1819 23.6582C31.6451 23.4406 32.3363 23.3932 33.3796 23.275C32.0859 23.1209 31.3353 23.0854 30.8885 22.7012C30.5107 22.2632 30.4703 21.536 30.3226 20.3027Z" fill="white"/><g filter="url(#filter0_4166)"><path d="M30.3226 20.3027C30.1848 21.3963 30.1392 22.0907 29.87 22.5389C29.4299 23.096 28.6671 23.1491 27.2656 23.275C28.6443 23.4372 29.3898 23.4724 29.8312 23.9827C30.161 24.4346 30.2168 25.1335 30.3226 26.2473C30.5024 24.8027 30.5305 24.0733 31.1819 23.6582C31.6451 23.4406 32.3363 23.3932 33.3796 23.275C32.0859 23.1209 31.3353 23.0854 30.8885 22.7012C30.5107 22.2632 30.4703 21.536 30.3226 20.3027Z" fill="white"/></g><g filter="url(#filter1_4166)"><path d="M30.3226 20.3027C30.1848 21.3963 30.1392 22.0907 29.87 22.5389C29.4299 23.096 28.6671 23.1491 27.2656 23.275C28.6443 23.4372 29.3898 23.4724 29.8312 23.9827C30.161 24.4346 30.2168 25.1335 30.3226 26.2473C30.5024 24.8027 30.5305 24.0733 31.1819 23.6582C31.6451 23.4406 32.3363 23.3932 33.3796 23.275C32.0859 23.1209 31.3353 23.0854 30.8885 22.7012C30.5107 22.2632 30.4703 21.536 30.3226 20.3027Z" fill="white"/></g><path d="M27.9169 17.2647C33.3496 16.9206 37.8301 21.4012 37.4861 26.8338C37.2034 31.3144 33.5683 34.9495 29.0851 35.2348C23.6551 35.5762 19.1745 31.0983 19.5186 25.6657C19.8013 21.1825 23.4364 17.5474 27.9169 17.2647ZM28.5037 18.8009C23.6951 18.7288 20.028 23.5161 21.2948 28.1326C23.4684 24.2975 28.3916 24.3002 28.797 24.8229C18.5745 31.5091 30.5599 32.7359 35.1231 29.6662C37.7181 24.9189 33.9656 18.6595 28.5037 18.8009Z" fill="url(#paint0_linear_4166_6394)"/></g><defs><filter id="filter0_4166" x="26.2112" y="19.2483" width="8.22598" height="8.05411" filterUnits="userSpaceOnUse" color-interpolation-filters="sRGB"><feFlood flood-opacity="0" result="BackgroundImageFix"/><feBlend mode="normal" in="SourceGraphic" in2="BackgroundImageFix" result="shape"/><feGaussianBlur stdDeviation="0.527" result="effect1_foregroundBlur"/></filter><filter id="filter1_4166" x="25.2886" y="18.3257" width="10.0712" height="9.8993" filterUnits="userSpaceOnUse" color-interpolation-filters="sRGB"><feFlood flood-opacity="0" result="BackgroundImageFix"/><feBlend mode="normal" in="SourceGraphic" in2="BackgroundImageFix" result="shape"/><feGaussianBlur stdDeviation="0.988" result="effect1_foregroundBlur"/></filter><linearGradient id="paint0_linear_4166_6394" x1="33.1522" y1="18.4248" x2="24.2151" y2="33.4666" gradientUnits="userSpaceOnUse"><stop stop-color="white"/><stop offset="0.46" stop-color="#C4C8E7"/><stop offset="0.5" stop-color="#B0B5DF"/><stop offset="0.64" stop-color="#818ACC"/><stop offset="1" stop-color="#525EB9"/></linearGradient><clipPath id="clip0_4166_6394"><rect width="18.0075" height="18.0075" fill="white" transform="translate(19.5 17.2461)"/></clipPath></defs></svg>